<mxfile host="app.diagrams.net" modified="2024-09-18T03:00:00.000Z" agent="5.0" etag="xxx" version="21.6.5" type="device">
  <diagram name="RPC框架对比" id="rpc-framework-comparison">
    <mxGraphModel dx="1422" dy="794" grid="1" gridSize="10" guides="1" tooltips="1" connect="1" arrows="1" fold="1" page="1" pageScale="1" pageWidth="1169" pageHeight="827" math="0" shadow="0">
      <root>
        <mxCell id="0" />
        <mxCell id="1" parent="0" />
        
        <!-- 标题 -->
        <mxCell id="title" value="RPC框架对比分析" style="text;html=1;strokeColor=none;fillColor=none;align=center;verticalAlign=middle;whiteSpace=wrap;rounded=0;fontSize=18;fontStyle=1;fontColor=#2c3e50;" vertex="1" parent="1">
          <mxGeometry x="450" y="20" width="250" height="40" as="geometry" />
        </mxCell>
        
        <!-- Java RMI -->
        <mxCell id="rmi-section" value="Java RMI" style="rounded=1;whiteSpace=wrap;html=1;fillColor=#f8cecc;strokeColor=#b85450;fontSize=16;fontStyle=1;verticalAlign=top;" vertex="1" parent="1">
          <mxGeometry x="80" y="80" width="300" height="200" as="geometry" />
        </mxCell>
        
        <!-- RMI特点 -->
        <mxCell id="rmi-serialization" value="序列化：Java原生" style="rounded=1;whiteSpace=wrap;html=1;fillColor=#fce4ec;strokeColor=#b85450;fontSize=11;" vertex="1" parent="1">
          <mxGeometry x="100" y="120" width="120" height="30" as="geometry" />
        </mxCell>
        
        <mxCell id="rmi-language" value="语言：仅Java" style="rounded=1;whiteSpace=wrap;html=1;fillColor=#fce4ec;strokeColor=#b85450;fontSize=11;" vertex="1" parent="1">
          <mxGeometry x="240" y="120" width="120" height="30" as="geometry" />
        </mxCell>
        
        <mxCell id="rmi-performance" value="性能：一般" style="rounded=1;whiteSpace=wrap;html=1;fillColor=#fce4ec;strokeColor=#b85450;fontSize=11;" vertex="1" parent="1">
          <mxGeometry x="100" y="170" width="120" height="30" as="geometry" />
        </mxCell>
        
        <mxCell id="rmi-complexity" value="复杂度：简单" style="rounded=1;whiteSpace=wrap;html=1;fillColor=#fce4ec;strokeColor=#b85450;fontSize=11;" vertex="1" parent="1">
          <mxGeometry x="240" y="170" width="120" height="30" as="geometry" />
        </mxCell>
        
        <mxCell id="rmi-bigdata" value="大数据支持：有限" style="rounded=1;whiteSpace=wrap;html=1;fillColor=#fce4ec;strokeColor=#b85450;fontSize=11;" vertex="1" parent="1">
          <mxGeometry x="170" y="220" width="120" height="30" as="geometry" />
        </mxCell>
        
        <!-- gRPC -->
        <mxCell id="grpc-section" value="gRPC" style="rounded=1;whiteSpace=wrap;html=1;fillColor=#dae8fc;strokeColor=#6c8ebf;fontSize=16;fontStyle=1;verticalAlign=top;" vertex="1" parent="1">
          <mxGeometry x="420" y="80" width="300" height="200" as="geometry" />
        </mxCell>
        
        <!-- gRPC特点 -->
        <mxCell id="grpc-serialization" value="序列化：Protocol Buffers" style="rounded=1;whiteSpace=wrap;html=1;fillColor=#e8f4fd;strokeColor=#6c8ebf;fontSize=11;" vertex="1" parent="1">
          <mxGeometry x="440" y="120" width="140" height="30" as="geometry" />
        </mxCell>
        
        <mxCell id="grpc-language" value="语言：多语言" style="rounded=1;whiteSpace=wrap;html=1;fillColor=#e8f4fd;strokeColor=#6c8ebf;fontSize=11;" vertex="1" parent="1">
          <mxGeometry x="600" y="120" width="100" height="30" as="geometry" />
        </mxCell>
        
        <mxCell id="grpc-performance" value="性能：高" style="rounded=1;whiteSpace=wrap;html=1;fillColor=#e8f4fd;strokeColor=#6c8ebf;fontSize=11;" vertex="1" parent="1">
          <mxGeometry x="440" y="170" width="100" height="30" as="geometry" />
        </mxCell>
        
        <mxCell id="grpc-complexity" value="复杂度：中等" style="rounded=1;whiteSpace=wrap;html=1;fillColor=#e8f4fd;strokeColor=#6c8ebf;fontSize=11;" vertex="1" parent="1">
          <mxGeometry x="560" y="170" width="100" height="30" as="geometry" />
        </mxCell>
        
        <mxCell id="grpc-flexibility" value="协议灵活性：固定" style="rounded=1;whiteSpace=wrap;html=1;fillColor=#e8f4fd;strokeColor=#6c8ebf;fontSize=11;" vertex="1" parent="1">
          <mxGeometry x="500" y="220" width="120" height="30" as="geometry" />
        </mxCell>
        
        <!-- Hadoop RPC -->
        <mxCell id="hadoop-section" value="Hadoop RPC" style="rounded=1;whiteSpace=wrap;html=1;fillColor=#d5e8d4;strokeColor=#82b366;fontSize=16;fontStyle=1;verticalAlign=top;" vertex="1" parent="1">
          <mxGeometry x="760" y="80" width="300" height="200" as="geometry" />
        </mxCell>
        
        <!-- Hadoop RPC特点 -->
        <mxCell id="hadoop-serialization" value="序列化：可插拔" style="rounded=1;whiteSpace=wrap;html=1;fillColor=#e8f5e8;strokeColor=#82b366;fontSize=11;" vertex="1" parent="1">
          <mxGeometry x="780" y="120" width="120" height="30" as="geometry" />
        </mxCell>
        
        <mxCell id="hadoop-language" value="语言：Java+扩展" style="rounded=1;whiteSpace=wrap;html=1;fillColor=#e8f5e8;strokeColor=#82b366;fontSize=11;" vertex="1" parent="1">
          <mxGeometry x="920" y="120" width="120" height="30" as="geometry" />
        </mxCell>
        
        <mxCell id="hadoop-performance" value="性能：优化" style="rounded=1;whiteSpace=wrap;html=1;fillColor=#e8f5e8;strokeColor=#82b366;fontSize=11;" vertex="1" parent="1">
          <mxGeometry x="780" y="170" width="100" height="30" as="geometry" />
        </mxCell>
        
        <mxCell id="hadoop-bigdata" value="大数据：专门优化" style="rounded=1;whiteSpace=wrap;html=1;fillColor=#e8f5e8;strokeColor=#82b366;fontSize=11;" vertex="1" parent="1">
          <mxGeometry x="900" y="170" width="120" height="30" as="geometry" />
        </mxCell>
        
        <mxCell id="hadoop-async" value="异步处理：支持" style="rounded=1;whiteSpace=wrap;html=1;fillColor=#e8f5e8;strokeColor=#82b366;fontSize=11;" vertex="1" parent="1">
          <mxGeometry x="840" y="220" width="120" height="30" as="geometry" />
        </mxCell>
        
        <!-- 对比维度 -->
        <mxCell id="comparison-title" value="关键对比维度" style="text;html=1;strokeColor=none;fillColor=none;align=center;verticalAlign=middle;whiteSpace=wrap;rounded=0;fontSize=16;fontStyle=1;fontColor=#2c3e50;" vertex="1" parent="1">
          <mxGeometry x="450" y="320" width="200" height="30" as="geometry" />
        </mxCell>
        
        <!-- 对比表格 -->
        <mxCell id="table-header" value="对比项目" style="rounded=1;whiteSpace=wrap;html=1;fillColor=#34495e;strokeColor=#2c3e50;fontSize=12;fontStyle=1;fontColor=#ffffff;" vertex="1" parent="1">
          <mxGeometry x="150" y="370" width="100" height="40" as="geometry" />
        </mxCell>
        
        <mxCell id="table-rmi" value="Java RMI" style="rounded=1;whiteSpace=wrap;html=1;fillColor=#e74c3c;strokeColor=#c0392b;fontSize=12;fontStyle=1;fontColor=#ffffff;" vertex="1" parent="1">
          <mxGeometry x="250" y="370" width="100" height="40" as="geometry" />
        </mxCell>
        
        <mxCell id="table-grpc" value="gRPC" style="rounded=1;whiteSpace=wrap;html=1;fillColor=#3498db;strokeColor=#2980b9;fontSize=12;fontStyle=1;fontColor=#ffffff;" vertex="1" parent="1">
          <mxGeometry x="350" y="370" width="100" height="40" as="geometry" />
        </mxCell>
        
        <mxCell id="table-hadoop" value="Hadoop RPC" style="rounded=1;whiteSpace=wrap;html=1;fillColor=#27ae60;strokeColor=#229954;fontSize=12;fontStyle=1;fontColor=#ffffff;" vertex="1" parent="1">
          <mxGeometry x="450" y="370" width="100" height="40" as="geometry" />
        </mxCell>
        
        <!-- 序列化行 -->
        <mxCell id="row1-label" value="序列化" style="rounded=1;whiteSpace=wrap;html=1;fillColor=#ecf0f1;strokeColor=#bdc3c7;fontSize=11;" vertex="1" parent="1">
          <mxGeometry x="150" y="410" width="100" height="30" as="geometry" />
        </mxCell>
        
        <mxCell id="row1-rmi" value="Java原生" style="rounded=1;whiteSpace=wrap;html=1;fillColor=#fadbd8;strokeColor=#e74c3c;fontSize=11;" vertex="1" parent="1">
          <mxGeometry x="250" y="410" width="100" height="30" as="geometry" />
        </mxCell>
        
        <mxCell id="row1-grpc" value="ProtoBuf" style="rounded=1;whiteSpace=wrap;html=1;fillColor=#d6eaf8;strokeColor=#3498db;fontSize=11;" vertex="1" parent="1">
          <mxGeometry x="350" y="410" width="100" height="30" as="geometry" />
        </mxCell>
        
        <mxCell id="row1-hadoop" value="可插拔" style="rounded=1;whiteSpace=wrap;html=1;fillColor=#d5f4e6;strokeColor=#27ae60;fontSize=11;" vertex="1" parent="1">
          <mxGeometry x="450" y="410" width="100" height="30" as="geometry" />
        </mxCell>
        
        <!-- 跨语言行 -->
        <mxCell id="row2-label" value="跨语言" style="rounded=1;whiteSpace=wrap;html=1;fillColor=#ecf0f1;strokeColor=#bdc3c7;fontSize=11;" vertex="1" parent="1">
          <mxGeometry x="150" y="440" width="100" height="30" as="geometry" />
        </mxCell>
        
        <mxCell id="row2-rmi" value="仅Java" style="rounded=1;whiteSpace=wrap;html=1;fillColor=#fadbd8;strokeColor=#e74c3c;fontSize=11;" vertex="1" parent="1">
          <mxGeometry x="250" y="440" width="100" height="30" as="geometry" />
        </mxCell>
        
        <mxCell id="row2-grpc" value="多语言" style="rounded=1;whiteSpace=wrap;html=1;fillColor=#d6eaf8;strokeColor=#3498db;fontSize=11;" vertex="1" parent="1">
          <mxGeometry x="350" y="440" width="100" height="30" as="geometry" />
        </mxCell>
        
        <mxCell id="row2-hadoop" value="Java+C++" style="rounded=1;whiteSpace=wrap;html=1;fillColor=#d5f4e6;strokeColor=#27ae60;fontSize=11;" vertex="1" parent="1">
          <mxGeometry x="450" y="440" width="100" height="30" as="geometry" />
        </mxCell>
        
        <!-- 大数据优化行 -->
        <mxCell id="row3-label" value="大数据优化" style="rounded=1;whiteSpace=wrap;html=1;fillColor=#ecf0f1;strokeColor=#bdc3c7;fontSize=11;" vertex="1" parent="1">
          <mxGeometry x="150" y="470" width="100" height="30" as="geometry" />
        </mxCell>
        
        <mxCell id="row3-rmi" value="无" style="rounded=1;whiteSpace=wrap;html=1;fillColor=#fadbd8;strokeColor=#e74c3c;fontSize=11;" vertex="1" parent="1">
          <mxGeometry x="250" y="470" width="100" height="30" as="geometry" />
        </mxCell>
        
        <mxCell id="row3-grpc" value="通用" style="rounded=1;whiteSpace=wrap;html=1;fillColor=#d6eaf8;strokeColor=#3498db;fontSize=11;" vertex="1" parent="1">
          <mxGeometry x="350" y="470" width="100" height="30" as="geometry" />
        </mxCell>
        
        <mxCell id="row3-hadoop" value="专门优化" style="rounded=1;whiteSpace=wrap;html=1;fillColor=#d5f4e6;strokeColor=#27ae60;fontSize=11;" vertex="1" parent="1">
          <mxGeometry x="450" y="470" width="100" height="30" as="geometry" />
        </mxCell>
        
        <!-- 异步处理行 -->
        <mxCell id="row4-label" value="异步处理" style="rounded=1;whiteSpace=wrap;html=1;fillColor=#ecf0f1;strokeColor=#bdc3c7;fontSize=11;" vertex="1" parent="1">
          <mxGeometry x="150" y="500" width="100" height="30" as="geometry" />
        </mxCell>
        
        <mxCell id="row4-rmi" value="有限" style="rounded=1;whiteSpace=wrap;html=1;fillColor=#fadbd8;strokeColor=#e74c3c;fontSize=11;" vertex="1" parent="1">
          <mxGeometry x="250" y="500" width="100" height="30" as="geometry" />
        </mxCell>
        
        <mxCell id="row4-grpc" value="支持" style="rounded=1;whiteSpace=wrap;html=1;fillColor=#d6eaf8;strokeColor=#3498db;fontSize=11;" vertex="1" parent="1">
          <mxGeometry x="350" y="500" width="100" height="30" as="geometry" />
        </mxCell>
        
        <mxCell id="row4-hadoop" value="高级支持" style="rounded=1;whiteSpace=wrap;html=1;fillColor=#d5f4e6;strokeColor=#27ae60;fontSize=11;" vertex="1" parent="1">
          <mxGeometry x="450" y="500" width="100" height="30" as="geometry" />
        </mxCell>
        
        <!-- 监控能力行 -->
        <mxCell id="row5-label" value="监控能力" style="rounded=1;whiteSpace=wrap;html=1;fillColor=#ecf0f1;strokeColor=#bdc3c7;fontSize=11;" vertex="1" parent="1">
          <mxGeometry x="150" y="530" width="100" height="30" as="geometry" />
        </mxCell>
        
        <mxCell id="row5-rmi" value="基础" style="rounded=1;whiteSpace=wrap;html=1;fillColor=#fadbd8;strokeColor=#e74c3c;fontSize=11;" vertex="1" parent="1">
          <mxGeometry x="250" y="530" width="100" height="30" as="geometry" />
        </mxCell>
        
        <mxCell id="row5-grpc" value="丰富" style="rounded=1;whiteSpace=wrap;html=1;fillColor=#d6eaf8;strokeColor=#3498db;fontSize=11;" vertex="1" parent="1">
          <mxGeometry x="350" y="530" width="100" height="30" as="geometry" />
        </mxCell>
        
        <mxCell id="row5-hadoop" value="企业级" style="rounded=1;whiteSpace=wrap;html=1;fillColor=#d5f4e6;strokeColor=#27ae60;fontSize=11;" vertex="1" parent="1">
          <mxGeometry x="450" y="530" width="100" height="30" as="geometry" />
        </mxCell>
        
        <!-- Hadoop RPC优势总结 -->
        <mxCell id="advantages-title" value="Hadoop RPC独特优势" style="text;html=1;strokeColor=none;fillColor=none;align=center;verticalAlign=middle;whiteSpace=wrap;rounded=0;fontSize=16;fontStyle=1;fontColor=#2c3e50;" vertex="1" parent="1">
          <mxGeometry x="650" y="370" width="200" height="30" as="geometry" />
        </mxCell>
        
        <mxCell id="adv1" value="✓ 可插拔序列化协议" style="rounded=1;whiteSpace=wrap;html=1;fillColor=#d5f4e6;strokeColor=#27ae60;fontSize=11;" vertex="1" parent="1">
          <mxGeometry x="600" y="410" width="140" height="30" as="geometry" />
        </mxCell>
        
        <mxCell id="adv2" value="✓ 大数据场景优化" style="rounded=1;whiteSpace=wrap;html=1;fillColor=#d5f4e6;strokeColor=#27ae60;fontSize=11;" vertex="1" parent="1">
          <mxGeometry x="760" y="410" width="140" height="30" as="geometry" />
        </mxCell>
        
        <mxCell id="adv3" value="✓ 企业级安全机制" style="rounded=1;whiteSpace=wrap;html=1;fillColor=#d5f4e6;strokeColor=#27ae60;fontSize=11;" vertex="1" parent="1">
          <mxGeometry x="600" y="450" width="140" height="30" as="geometry" />
        </mxCell>
        
        <mxCell id="adv4" value="✓ 高级异步处理" style="rounded=1;whiteSpace=wrap;html=1;fillColor=#d5f4e6;strokeColor=#27ae60;fontSize=11;" vertex="1" parent="1">
          <mxGeometry x="760" y="450" width="140" height="30" as="geometry" />
        </mxCell>
        
        <mxCell id="adv5" value="✓ 智能连接管理" style="rounded=1;whiteSpace=wrap;html=1;fillColor=#d5f4e6;strokeColor=#27ae60;fontSize=11;" vertex="1" parent="1">
          <mxGeometry x="600" y="490" width="140" height="30" as="geometry" />
        </mxCell>
        
        <mxCell id="adv6" value="✓ 详细监控指标" style="rounded=1;whiteSpace=wrap;html=1;fillColor=#d5f4e6;strokeColor=#27ae60;fontSize=11;" vertex="1" parent="1">
          <mxGeometry x="760" y="490" width="140" height="30" as="geometry" />
        </mxCell>
        
      </root>
    </mxGraphModel>
  </diagram>
</mxfile>
